<svg xmlns="http://www.w3.org/2000/svg" xmlns:xlink="http://www.w3.org/1999/xlink" viewBox="0 0 266.82 24.22"><defs><style>.cls-1{fill:none;}.cls-2{fill:#010101;}.cls-3{clip-path:url(#clip-path);}</style><clipPath id="clip-path"><rect class="cls-1" width="47.37" height="24.22"/></clipPath></defs><title>Asset 1</title><g id="Layer_2" data-name="Layer 2"><g id="Layer_1-2" data-name="Layer 1"><path class="cls-2" d="M73.78,4.29a6.1,6.1,0,0,1,1.14.38V7.14a5.89,5.89,0,0,0-1.06-.41,3.74,3.74,0,0,0-1-.13,3.18,3.18,0,0,0-3,1.81,13.14,13.14,0,0,0-.95,5.77,12.42,12.42,0,0,0,.91,5.46,2.94,2.94,0,0,0,2.78,1.78,3.52,3.52,0,0,0,1.1-.18,6.23,6.23,0,0,0,1.2-.55v2.53a5.64,5.64,0,0,1-2.7.68,4.84,4.84,0,0,1-4.42-2.42c-1-1.6-1.46-4-1.46-7.27s.52-5.81,1.56-7.5a5.08,5.08,0,0,1,4.62-2.55A5.6,5.6,0,0,1,73.78,4.29ZM93,11.73H88.4V4.41H85.8V23.66h2.6V14.15H93v9.51h2.59V4.41H93Zm14.53,11.93h7.7v-2.4h-5.11V14.75h4.67v-2.3h-4.67V6.73h5.11V4.41h-7.7Zm19,0h2.59V14.77H134V12.48h-4.86V6.73h5.29V4.41h-7.88Zm18.09-13.45,1.32.38,2.45-6.75-2-.62Zm19.82,3.25-.41-.32q-2.83-2.27-2.84-3.93A2.57,2.57,0,0,1,162,7.29a2.7,2.7,0,0,1,2-.72,4.22,4.22,0,0,1,1.41.26,6.18,6.18,0,0,1,1.47.78V5a6.78,6.78,0,0,0-1.65-.66,6.93,6.93,0,0,0-1.72-.21A4.54,4.54,0,0,0,160,5.61a5.07,5.07,0,0,0-1.38,3.63,5.37,5.37,0,0,0,.68,2.71,10.26,10.26,0,0,0,2.4,2.61l.47.4c1.79,1.46,2.68,2.75,2.68,3.89a2.47,2.47,0,0,1-.7,1.85,2.55,2.55,0,0,1-1.88.69,4.5,4.5,0,0,1-1.47-.27,9.15,9.15,0,0,1-1.7-.84v2.65a8.05,8.05,0,0,0,1.72.73,5.85,5.85,0,0,0,1.63.24,4.86,4.86,0,0,0,3.61-1.43,5,5,0,0,0,1.41-3.65,5.65,5.65,0,0,0-.68-2.81A9.5,9.5,0,0,0,164.48,13.46Zm36.35-9-2.68,13.33L195.54,4.41H193.2l-1.65,19.25h2.37l.78-13.5,2.57,13.5H199l2.57-13.5.78,13.5h2.4L203.1,4.41ZM215.9,23.66h7.7v-2.4h-5.1V14.75h4.66v-2.3H218.5V6.73h5.1V4.41h-7.7Zm26.48-5.88L237.27,4.41h-2.39V23.66h2.45V10.19l5.07,13.47h2.44V4.41h-2.46ZM264.25,4.41V18.74a2.94,2.94,0,0,1-.61,2.05,3.09,3.09,0,0,1-3.79,0,2.89,2.89,0,0,1-.62-2.05V4.41h-2.56V18.53a5.8,5.8,0,0,0,1.22,4.08,6.41,6.41,0,0,0,7.71,0,5.8,5.8,0,0,0,1.22-4.08V4.41Z"/><g id="Group_3" data-name="Group 3"><path id="Clip_2-2" data-name="Clip 2-2" class="cls-1" d="M0,0H47.37V24.22H0Z"/><g class="cls-3"><g id="Group_3-2" data-name="Group 3-2"><path id="Fill_1" data-name="Fill 1" class="cls-2" d="M46.19,24.21h-45a1.19,1.19,0,0,1,0-2.37h2a.13.13,0,0,0,0-.06.22.22,0,0,1,0-.08A20.71,20.71,0,0,1,22.5,3.5V1.81a1.19,1.19,0,0,1,2.37,0V3.5A20.71,20.71,0,0,1,44.24,21.63a.71.71,0,0,1,0,.14.17.17,0,0,1,0,.07h2a1.19,1.19,0,0,1,.19,2.37h-.18ZM23.66,5.82a18.37,18.37,0,0,0-18.16,16H41.88a18.36,18.36,0,0,0-18.19-16Z"/></g></g></g><path id="Fill_4" data-name="Fill 4" class="cls-2" d="M28.12,9.93a.59.59,0,1,0-.39,1.12h0a12.35,12.35,0,0,1,7.17,5.86.59.59,0,0,0,.8.23.6.6,0,0,0,.24-.8h0a13.55,13.55,0,0,0-7.86-6.42"/></g></g></svg>